<?xml version="1.0" encoding="UTF-8"?>
<svg id="Layer_1" data-name="Layer 1" xmlns="http://www.w3.org/2000/svg" viewBox="0 0 22 17.33">
  <defs>
    <style>
      .cls-1, .cls-2, .cls-3, .cls-4, .cls-5 {
        fill: none;
        stroke: #dc2727;
      }

      .cls-1, .cls-2, .cls-3, .cls-5 {
        stroke-linecap: round;
      }

      .cls-1, .cls-3, .cls-5 {
        stroke-linejoin: round;
      }

      .cls-2, .cls-5 {
        stroke-width: .5px;
      }

      .cls-3 {
        stroke-width: 2px;
      }

      .cls-4 {
        stroke-miterlimit: 10;
      }
    </style>
  </defs>
  <rect class="cls-1" x="3" y="4.83" width="16" height="12" rx="2" ry="2"/>
  <path class="cls-3" d="M1,10.83h2"/>
  <path class="cls-3" d="M19,10.83h2"/>
  <path class="cls-3" d="M14.24,7.84v2"/>
  <path class="cls-3" d="M6.87,7.93v2"/>
  <path class="cls-5" d="M9.87,14.47h2.13l-.52.78c-.08.12-.26.2-.46.2h-.17c-.2,0-.37-.08-.46-.2l-.52-.78Z"/>
  <path class="cls-2" d="M12.38,11.06l.04-.09c.16-.37-.11-.79-.52-.79h-2.58c-.41,0-.68.42-.52.79l.04.09c.68,1.54,2.87,1.54,3.54,0Z"/>
  <g>
    <path class="cls-2" d="M11.04,14.31c.23.28,2.46.34,2.11-1"/>
    <path class="cls-2" d="M8.61,13.66c.06.35,1.96,1.52,2.32.18"/>
    <path class="cls-2" d="M10.57,12.22c.59.73.42,2.08.22,2"/>
  </g>
  <path class="cls-5" d="M9.12,4.35h-3.14s.77-3.27.77-3.27c.12-.51.38-.83.67-.83h.25c.29,0,.55.33.67.83l.77,3.27Z"/>
  <path class="cls-5" d="M15.88,4.35h-3.14s.77-3.27.77-3.27c.12-.51.38-.83.67-.83h.25c.29,0,.55.33.67.83l.77,3.27Z"/>
  <path class="cls-4" d="M8.16,4.14h-1.23s.3-1.69.3-1.69c.05-.26.15-.43.26-.43h.1c.11,0,.22.17.26.43l.3,1.69Z"/>
  <path class="cls-4" d="M14.96,4.14h-1.23s.3-1.69.3-1.69c.05-.26.15-.43.26-.43h.1c.11,0,.22.17.26.43l.3,1.69Z"/>
</svg>